# xmcd
#
# Track frame offsets:
#	150
#	20773
#	30961
#	48285
#	66212
#	86341
#	94214
#	106256
#	131350
#	146425
#	158588
#
# Disc length: 2400 seconds
#
# Revision: 2
# Processed by: cddbd v1.5.2PL0 Copyright (c) Steve Scherf et al.
# Submitted via: EZCDDA 4.3.2
#
DISCID=80095e0b
DTITLE=Darkest Hour - Deliver Us
DYEAR=1900
DGENRE=
TTITLE0=Doomsayer
TTITLE1=Sanctuary
TTITLE2=Demon(S)
TTITLE3=An Ethereal Drain
TTITLE4=A Paradox With Flies
TTITLE5=The Light At The Edge Of The World
TTITLE6=Stand And Receive Your Judgment
TTITLE7=Tunguska
TTITLE8=Fire In The Skies
TTITLE9=Full Imperial Collapse
TTITLE10=Deliver Us
EXTD=
EXTT0=
EXTT1=
EXTT2=
EXTT3=
EXTT4=
EXTT5=
EXTT6=
EXTT7=
EXTT8=
EXTT9=
EXTT10=
PLAYORDER=
